<?xml version="1.0" standalone="no"?>
<!DOCTYPE svg PUBLIC "-//W3C//DTD SVG 20010904//EN"
 "http://www.w3.org/TR/2001/REC-SVG-20010904/DTD/svg10.dtd">
<svg version="1.0" xmlns="http://www.w3.org/2000/svg"
 width="339.000000pt" height="339.000000pt" viewBox="0 0 339.000000 339.000000"
 preserveAspectRatio="xMidYMid meet">
<metadata>
Created by potrace 1.11, written by Peter Selinger 2001-2013
</metadata>
<g transform="translate(0.000000,339.000000) scale(0.100000,-0.100000)"
fill="#000000" stroke="none">
<path d="M1502 3188 c-60 -8 -72 -13 -70 -27 3 -13 14 -15 56 -13 29 2 52 0
52 -4 0 -4 -17 -34 -37 -66 -38 -57 -38 -58 -82 -56 -47 3 -71 -19 -33 -29 17
-4 20 -11 15 -34 -3 -17 0 -35 7 -44 15 -19 17 -17 -45 -40 -27 -10 -68 -26
-90 -35 -22 -10 -55 -21 -74 -25 l-34 -7 61 74 c59 71 63 74 98 70 33 -4 35
-2 32 19 -2 19 -10 23 -43 25 -22 1 -60 9 -84 18 -25 8 -48 13 -53 10 -19 -12
-6 -33 25 -39 50 -11 50 -14 13 -55 -19 -22 -47 -57 -62 -80 -15 -22 -29 -40
-33 -40 -7 0 -94 141 -112 183 -12 26 -11 30 11 47 19 14 22 22 13 31 -8 8
-27 3 -77 -21 -62 -31 -79 -51 -56 -65 5 -3 21 2 35 11 30 20 26 22 50 -41 10
-27 36 -74 56 -104 21 -30 37 -56 35 -58 -3 -4 -168 34 -226 53 -45 14 -45 13
-72 -16 -32 -35 -35 -48 -12 -57 14 -5 28 6 37 31 1 4 59 -6 127 -22 69 -17
136 -32 150 -34 22 -3 25 -8 26 -43 1 -22 4 -106 8 -187 5 -116 4 -148 -6
-148 -14 0 -104 28 -188 59 -30 11 -70 20 -88 21 -18 0 -42 5 -53 11 -15 7
-24 7 -35 -2 -22 -18 0 -37 54 -45 26 -3 86 -19 135 -35 48 -16 96 -29 107
-29 10 0 22 -5 25 -10 8 -14 -102 -63 -236 -107 -129 -42 -127 -43 -153 57 -9
36 -22 79 -27 95 -53 153 -53 153 6 172 29 9 50 53 26 53 -5 0 -57 -25 -115
-56 -78 -41 -106 -61 -106 -75 0 -24 17 -24 55 1 17 11 35 20 41 20 13 0 49
-98 69 -185 7 -33 17 -69 21 -79 6 -16 4 -18 -12 -11 -25 10 -122 32 -204 45
-98 16 -100 17 -100 55 0 36 -9 48 -27 37 -16 -11 -21 -164 -5 -169 7 -3 17 9
23 27 9 25 16 31 33 26 11 -3 81 -18 154 -32 72 -15 132 -30 132 -33 0 -3 -21
-16 -47 -28 -50 -23 -131 -81 -196 -139 -46 -42 -56 -42 -64 -4 -8 40 -39 37
-36 -3 2 -33 89 -137 115 -137 23 0 23 19 -2 50 -11 14 -20 28 -20 32 0 4 33
34 74 67 70 58 202 131 235 131 9 0 33 6 56 14 22 8 78 26 124 41 47 15 118
45 159 67 41 21 77 37 79 35 2 -3 10 -56 18 -118 9 -63 19 -136 24 -164 5 -27
7 -53 4 -57 -5 -9 -243 -11 -243 -2 0 3 11 40 25 82 54 164 52 152 26 152 -19
0 -36 -36 -67 -144 -8 -28 -18 -54 -23 -59 -6 -6 -36 0 -79 15 -39 14 -76 22
-83 18 -19 -12 -4 -37 28 -44 47 -12 113 -38 113 -46 0 -4 -18 -39 -40 -76
-22 -38 -40 -77 -40 -86 0 -41 32 -13 74 64 l45 82 128 -3 c70 -1 129 -4 131
-6 1 -1 -2 -14 -8 -29 -13 -35 -13 -363 0 -520 6 -66 8 -121 6 -123 -7 -7 -88
17 -145 44 -30 13 -74 45 -99 69 -25 26 -50 43 -58 40 -22 -8 -17 -18 28 -69
45 -49 158 -108 230 -121 l37 -7 -20 -47 c-11 -26 -29 -62 -41 -79 -11 -18
-17 -33 -15 -33 8 0 -117 -242 -157 -304 -72 -112 -84 -144 -102 -273 -5 -31
-2 -50 10 -68 15 -22 23 -25 80 -25 54 0 75 6 143 40 127 65 203 162 203 260
0 41 -4 50 -27 65 -31 21 -121 16 -168 -9 -16 -9 -36 -16 -44 -16 -13 0 -89
-55 -103 -75 -4 -5 -8 -7 -8 -3 0 4 25 45 55 92 31 47 63 102 71 123 9 21 32
70 51 108 20 39 53 111 74 160 l38 90 59 7 c33 3 115 18 183 31 68 14 191 31
273 38 140 12 150 11 185 -7 20 -10 38 -22 41 -25 6 -8 124 -78 195 -116 46
-24 54 -34 100 -126 52 -103 91 -170 184 -310 l54 -82 -16 -115 c-9 -63 -24
-134 -34 -158 l-16 -43 -58 3 c-37 2 -63 -2 -71 -10 -23 -23 6 -33 93 -30 l84
3 7 35 c21 103 37 190 43 233 7 53 18 60 32 20 21 -57 70 -189 78 -205 5 -13
3 -18 -8 -18 -15 0 -30 -34 -19 -44 3 -3 23 -6 44 -6 47 0 48 11 12 101 -27
67 -73 199 -74 211 0 7 128 38 160 38 27 0 120 -70 120 -90 0 -9 -14 -38 -31
-64 -29 -42 -30 -49 -17 -63 14 -13 18 -11 40 19 29 38 75 142 84 186 9 45
-14 50 -32 7 l-15 -36 -65 45 -65 46 -75 -16 c-42 -8 -87 -19 -101 -25 -48
-18 -61 -11 -108 58 -49 74 -104 163 -142 231 -13 24 -37 68 -54 99 -17 30
-28 57 -25 60 3 3 68 -15 145 -41 78 -25 149 -46 158 -46 10 0 78 -20 152 -45
73 -25 140 -45 148 -45 23 0 12 44 -12 48 -11 2 -69 19 -130 37 -60 19 -173
52 -250 75 -77 22 -144 45 -149 50 -11 11 260 94 459 141 58 14 74 24 58 40
-8 8 -46 2 -139 -21 -191 -47 -218 -55 -349 -100 l-120 -42 -60 31 c-82 43
-215 124 -215 131 0 3 55 19 123 34 140 32 167 41 167 56 0 23 -34 20 -164
-12 -75 -19 -136 -32 -136 -29 0 2 6 12 13 20 26 31 147 229 147 240 0 24 -37
9 -54 -21 -58 -109 -139 -230 -163 -244 -10 -6 -40 -12 -67 -12 -63 -2 -168
-16 -398 -54 -103 -17 -190 -29 -193 -26 -21 21 -36 558 -18 637 l8 33 145 37
c146 38 178 48 280 83 l55 19 75 -36 c41 -19 100 -49 131 -65 31 -16 59 -26
63 -23 16 16 3 42 -26 56 -18 8 -77 36 -131 62 -81 37 -98 49 -92 63 4 9 13
37 20 62 7 25 24 76 39 113 23 59 24 68 10 74 -23 8 -28 -1 -69 -127 -20 -63
-41 -123 -46 -132 -5 -9 -44 -28 -86 -43 -77 -26 -354 -98 -358 -93 -2 2 -8
46 -15 98 -7 52 -18 128 -25 168 l-13 72 57 0 c31 0 91 8 134 17 60 14 77 22
77 35 0 22 -8 22 -85 3 -33 -8 -84 -14 -114 -15 l-54 0 99 95 c54 52 106 98
116 101 9 3 45 -9 80 -27 91 -47 91 -47 68 -76 -23 -30 -26 -53 -6 -53 15 0
116 130 116 149 0 17 -22 13 -45 -9 l-21 -20 -62 27 c-34 14 -61 28 -59 29 7
7 163 34 194 34 27 0 32 -4 35 -27 2 -18 10 -29 22 -31 17 -4 18 1 11 55 -4
32 -13 73 -21 92 -13 32 -16 33 -30 19 -13 -13 -14 -20 -4 -38 6 -12 10 -23 8
-24 -5 -5 -230 -37 -233 -34 -5 5 94 122 107 127 6 2 19 -7 28 -19 10 -13 22
-20 29 -16 16 10 14 41 -5 56 -8 8 -22 29 -29 48 -17 39 -40 38 -40 -1 0 -15
-13 -40 -31 -59 -17 -18 -53 -62 -81 -98 -28 -36 -79 -90 -114 -120 -35 -30
-83 -75 -106 -99 l-42 -43 2 63 c1 35 0 118 -3 183 l-5 120 60 18 c33 9 69 22
80 28 11 6 34 14 50 19 93 29 170 62 170 73 0 10 -20 25 -56 40 -4 2 -10 13
-13 26 -7 22 -6 22 76 22 65 0 90 4 116 20 35 21 43 59 18 82 -12 11 -7 16 28
33 60 29 60 57 1 73 -51 13 -69 13 -173 0z m148 -37 c0 -9 -34 -21 -64 -21
-15 0 -16 3 -6 15 13 16 70 21 70 6z m-44 -82 c18 -20 18 -21 -1 -35 -18 -14
-95 -20 -95 -8 0 3 9 19 21 35 24 34 49 37 75 8z m-408 -2371 c32 -32 -6 -125
-78 -191 -42 -39 -45 -40 -48 -20 -2 16 -11 23 -34 25 l-31 3 52 61 c74 90 66
117 -22 73 -55 -28 -77 -48 -77 -71 0 -24 18 -23 42 5 25 28 13 3 -19 -40 -18
-25 -32 -33 -56 -33 -39 0 -61 -13 -55 -31 3 -10 26 -13 91 -10 52 1 87 -1 87
-7 0 -28 -167 -59 -191 -35 -28 28 17 137 76 185 86 70 231 118 263 86z"/>
<path d="M1827 2744 c-37 -37 -51 -86 -37 -128 15 -46 53 -79 90 -79 54 0 109
58 82 85 -7 7 -18 2 -33 -16 -29 -33 -62 -33 -88 0 -25 32 -26 45 -5 85 12 24
18 28 29 19 30 -25 48 16 19 44 -21 21 -27 20 -57 -10z"/>
<path d="M220 2677 c-46 -16 -48 -43 -2 -39 17 1 32 -1 32 -4 0 -4 -14 -49
-32 -101 l-31 -94 -41 3 c-36 2 -41 0 -44 -20 -3 -21 0 -22 61 -22 52 0 75 6
125 31 78 41 108 72 124 132 14 55 8 70 -42 105 -37 25 -93 28 -150 9z m124
-38 c55 -26 32 -110 -44 -159 -57 -37 -73 -38 -61 -7 5 12 19 57 32 100 23 79
30 85 73 66z"/>
<path d="M3179 688 c-32 -61 -175 -228 -195 -228 -8 0 -14 -9 -14 -20 0 -22 6
-23 63 -13 31 5 38 9 34 24 -7 25 10 36 61 41 l42 4 0 -38 c0 -20 4 -39 9 -42
13 -9 131 54 131 69 0 25 -19 26 -59 5 l-41 -20 8 32 c3 18 6 47 4 63 -1 17
-3 54 -4 84 -3 59 -20 76 -39 39z m5 -114 c8 -31 9 -30 -31 -39 -39 -8 -40 -3
-10 35 28 36 33 36 41 4z"/>
</g>
</svg>
